<svg width="911" height="220" viewBox="0 0 911 220" fill="none" xmlns="http://www.w3.org/2000/svg">
<path d="M267.873 145.517L270.02 172.349C261.076 176.821 250.522 179.147 239.074 179.147C200.972 179.147 172.351 156.071 172.351 112.782C172.351 71.4599 200.972 45.8798 239.074 45.8798C250.343 45.8798 261.434 48.0264 269.662 51.9618L267.337 82.5505C260.36 78.9729 251.953 77.1841 241.757 77.1841C217.429 77.1841 202.045 92.0312 202.045 114.57C202.045 137.825 217.25 151.599 242.115 151.599C251.774 151.599 260.539 149.273 267.873 145.517ZM280.803 128.344C280.803 98.8287 301.732 77.5418 331.785 77.5418C362.016 77.5418 382.766 98.8287 382.766 128.344C382.766 157.681 362.016 179.325 331.785 179.325C301.911 179.325 280.803 157.681 280.803 128.344ZM331.785 153.745C344.485 153.745 353.787 144.444 353.787 129.954C353.787 116.001 344.306 105.984 331.785 105.984C319.084 105.984 309.961 116.001 309.961 129.954C309.961 144.444 319.263 153.745 331.785 153.745ZM398.32 177V79.8673H425.51V92.5679H426.226C432.308 83.4449 441.252 77.5418 455.204 77.5418C478.817 77.5418 490.981 93.6412 490.981 117.254V177H463.433V128.881C463.433 115.822 457.888 106.7 444.829 106.7C431.95 106.7 426.047 115.644 426.047 129.239V177H398.32ZM502.25 106.342V79.8673H516.382V73.2487C516.382 52.8562 528.904 38.7245 552.516 38.7245C558.061 38.7245 562.533 39.7978 566.111 40.8711L565.753 63.0524C563.249 62.5158 560.745 62.158 557.525 62.158C547.328 62.158 544.109 66.8089 544.109 74.1431V79.8673H563.249V106.342H544.109V177H516.382V106.342H502.25ZM573.445 177V41.05H601.172V177H573.445ZM616.556 128.344C616.556 98.8287 637.485 77.5418 667.537 77.5418C697.768 77.5418 718.518 98.8287 718.518 128.344C718.518 157.681 697.768 179.325 667.537 179.325C637.664 179.325 616.556 157.681 616.556 128.344ZM667.537 153.745C680.237 153.745 689.539 144.444 689.539 129.954C689.539 116.001 680.059 105.984 667.537 105.984C654.836 105.984 645.713 116.001 645.713 129.954C645.713 144.444 655.015 153.745 667.537 153.745ZM823.726 177L803.333 112.603L784.729 177H752.173L723.373 79.8673H755.393L771.85 148.021L789.559 79.8673H819.611L838.573 148.379L853.778 79.8673H884.367L856.282 177H823.726Z" fill="white"/>
<path d="M28.0674 86.8174C33.5787 63.0177 54.9113 45.2785 80.3867 45.2783C110.046 45.2783 134.09 69.3223 134.09 98.9814C134.09 119.357 122.742 137.084 106.021 146.184C106.927 142.275 107.405 138.202 107.405 134.018C107.405 104.359 83.3621 80.3156 53.7031 80.3154C44.4193 80.3154 35.6856 82.671 28.0674 86.8174ZM-2.34744e-06 134.018C0.000149688 113.642 11.3476 95.9174 28.0674 86.8174C27.1623 90.7258 26.6846 94.7978 26.6846 98.9814C26.6846 128.641 50.7277 152.684 80.3867 152.685C89.6699 152.685 98.4036 150.329 106.021 146.184C100.51 169.983 79.178 187.721 53.7031 187.721C24.0439 187.721 -1.05099e-06 163.677 -2.34744e-06 134.018Z" fill="white"/>
</svg>
