<svg width="131" height="28" viewBox="0 0 131 28" fill="none" xmlns="http://www.w3.org/2000/svg">
<path d="M128.835 8.60352C129.248 8.60352 129.607 8.76497 129.912 9.08788C130.217 9.39285 130.369 9.78752 130.369 10.2719C130.369 10.3975 130.36 10.5141 130.342 10.6217C130.324 10.7114 130.297 10.8011 130.261 10.8908L126.144 21.9773C126.019 22.3361 125.794 22.6142 125.472 22.8115C125.149 22.9909 124.808 23.0537 124.449 22.9999C123.839 22.964 123.382 22.6232 123.077 21.9773L120.413 14.3082L121.112 14.3352L118.61 21.9773C118.305 22.6232 117.847 22.964 117.237 22.9999C116.897 23.0537 116.556 22.9909 116.215 22.8115C115.892 22.6142 115.668 22.3361 115.542 21.9773L111.425 10.8908C111.353 10.6935 111.317 10.4872 111.317 10.2719C111.317 9.84133 111.461 9.45564 111.748 9.11479C112.035 8.77394 112.43 8.60352 112.932 8.60352C113.273 8.60352 113.578 8.68424 113.847 8.8457C114.116 9.00715 114.304 9.26727 114.412 9.62606L117.668 18.4522L116.995 18.3984L119.444 11.7519C119.731 11.0881 120.224 10.7562 120.924 10.7562C121.319 10.7562 121.615 10.8459 121.812 11.0253C122.027 11.1868 122.198 11.429 122.323 11.7519L124.772 18.3984L123.965 18.5061L127.274 9.62606C127.49 8.94436 128.01 8.60352 128.835 8.60352Z" fill="black"/>
<path d="M110.433 15.8147C110.433 17.2857 110.101 18.5863 109.437 19.7165C108.792 20.8288 107.912 21.6988 106.8 22.3267C105.706 22.9546 104.477 23.2685 103.114 23.2685C101.75 23.2685 100.512 22.9546 99.4003 22.3267C98.306 21.6988 97.4269 20.8288 96.7632 19.7165C96.1173 18.5863 95.7944 17.2857 95.7944 15.8147C95.7944 14.3437 96.1173 13.052 96.7632 11.9398C97.4269 10.8096 98.306 9.93059 99.4003 9.30271C100.512 8.65689 101.75 8.33398 103.114 8.33398C104.477 8.33398 105.706 8.65689 106.8 9.30271C107.912 9.93059 108.792 10.8096 109.437 11.9398C110.101 13.052 110.433 14.3437 110.433 15.8147ZM107.204 15.8147C107.204 14.8998 107.016 14.1105 106.639 13.4467C106.28 12.765 105.787 12.2358 105.159 11.8591C104.549 11.4823 103.867 11.294 103.114 11.294C102.36 11.294 101.67 11.4823 101.042 11.8591C100.432 12.2358 99.9384 12.765 99.5617 13.4467C99.2029 14.1105 99.0235 14.8998 99.0235 15.8147C99.0235 16.7117 99.2029 17.501 99.5617 18.1827C99.9384 18.8465 100.432 19.3667 101.042 19.7434C101.67 20.1202 102.36 20.3085 103.114 20.3085C103.867 20.3085 104.549 20.1202 105.159 19.7434C105.787 19.3667 106.28 18.8465 106.639 18.1827C107.016 17.501 107.204 16.7117 107.204 15.8147Z" fill="black"/>
<path d="M92.6466 22.5617C92.9695 22.2388 93.1309 21.8441 93.1309 21.3777V4.7479C93.1309 4.28148 92.9785 3.89578 92.6735 3.59081C92.3865 3.2679 92.0097 3.10645 91.5433 3.10645C91.0769 3.10645 90.6822 3.2679 90.3593 3.59081C90.0543 3.89578 89.9019 4.28148 89.9019 4.7479V21.3777C89.9019 21.8441 90.0543 22.2388 90.3593 22.5617C90.6643 22.8667 91.041 23.0192 91.4895 23.0192C91.9559 23.0192 92.3416 22.8667 92.6466 22.5617Z" fill="black"/>
<path d="M84.8416 3.08691C85.2362 3.08691 85.6219 3.14073 85.9987 3.24837C86.3754 3.356 86.6893 3.5354 86.9405 3.78655C87.1916 4.01976 87.3172 4.3337 87.3172 4.72837C87.3172 5.17685 87.1827 5.53564 86.9136 5.80473C86.6624 6.05588 86.3664 6.18146 86.0256 6.18146C85.8641 6.18146 85.6219 6.14558 85.299 6.07382C84.9761 5.98413 84.6622 5.93928 84.3572 5.93928C83.9087 5.93928 83.5589 6.03794 83.3078 6.23528C83.0745 6.43261 82.9131 6.66582 82.8234 6.93491C82.7337 7.18607 82.6888 7.41031 82.6888 7.60764V21.3582C82.6888 21.8246 82.5364 22.2193 82.2314 22.5422C81.9264 22.8472 81.5407 22.9996 81.0743 22.9996C80.6079 22.9996 80.2222 22.8472 79.9172 22.5422C79.6122 22.2193 79.4598 21.8246 79.4598 21.3582V7.63455C79.4598 6.36085 79.9082 5.28449 80.8052 4.40546C81.7022 3.52643 83.0476 3.08691 84.8416 3.08691ZM85.1376 8.87237C85.5681 8.87237 85.9269 9.01588 86.2139 9.30291C86.501 9.57201 86.6445 9.92182 86.6445 10.3524C86.6445 10.7829 86.501 11.1417 86.2139 11.4287C85.9269 11.6978 85.5681 11.8324 85.1376 11.8324H78.0067C77.5761 11.8324 77.2173 11.6978 76.9303 11.4287C76.6433 11.1417 76.4998 10.7829 76.4998 10.3524C76.4998 9.92182 76.6433 9.57201 76.9303 9.30291C77.2173 9.01588 77.5761 8.87237 78.0067 8.87237H85.1376Z" fill="black"/>
<path d="M70.1079 8.33398C71.4354 8.33398 72.44 8.61205 73.1217 9.16817C73.8213 9.72429 74.2967 10.4688 74.5479 11.4016C74.817 12.3165 74.9515 13.3391 74.9515 14.4693V21.358C74.9515 21.8244 74.799 22.2191 74.494 22.542C74.1891 22.847 73.8034 22.9994 73.337 22.9994C72.8705 22.9994 72.4848 22.847 72.1799 22.542C71.8749 22.2191 71.7224 21.8244 71.7224 21.358V14.4693C71.7224 13.8773 71.6417 13.348 71.4802 12.8816C71.3367 12.3973 71.0676 12.0116 70.673 11.7245C70.2783 11.4375 69.7132 11.294 68.9777 11.294C68.2601 11.294 67.6502 11.4375 67.1479 11.7245C66.6635 12.0116 66.2868 12.3973 66.0177 12.8816C65.7665 13.348 65.641 13.8773 65.641 14.4693V21.358C65.641 21.8244 65.4885 22.2191 65.1835 22.542C64.8785 22.847 64.4928 22.9994 64.0264 22.9994C63.56 22.9994 63.1743 22.847 62.8693 22.542C62.5644 22.2191 62.4119 21.8244 62.4119 21.358V10.2445C62.4119 9.77811 62.5644 9.39241 62.8693 9.08744C63.1743 8.76453 63.56 8.60308 64.0264 8.60308C64.4928 8.60308 64.8785 8.76453 65.1835 9.08744C65.4885 9.39241 65.641 9.77811 65.641 10.2445V11.4016L65.2373 11.3209C65.3988 11.0159 65.632 10.693 65.937 10.3522C66.2419 9.99338 66.6007 9.6615 67.0133 9.35653C67.4259 9.05156 67.8924 8.80938 68.4126 8.62998C68.9328 8.43265 69.4979 8.33398 70.1079 8.33398Z" fill="black"/>
<path d="M60.5858 15.8147C60.5858 17.2857 60.2539 18.5863 59.5902 19.7165C58.9444 20.8288 58.0653 21.6988 56.9531 22.3267C55.8588 22.9546 54.6299 23.2685 53.2665 23.2685C51.9031 23.2685 50.6653 22.9546 49.5531 22.3267C48.4588 21.6988 47.5798 20.8288 46.916 19.7165C46.2702 18.5863 45.9473 17.2857 45.9473 15.8147C45.9473 14.3437 46.2702 13.052 46.916 11.9398C47.5798 10.8096 48.4588 9.93059 49.5531 9.30271C50.6653 8.65689 51.9031 8.33398 53.2665 8.33398C54.6299 8.33398 55.8588 8.65689 56.9531 9.30271C58.0653 9.93059 58.9444 10.8096 59.5902 11.9398C60.2539 13.052 60.5858 14.3437 60.5858 15.8147ZM57.3567 15.8147C57.3567 14.8998 57.1684 14.1105 56.7916 13.4467C56.4328 12.765 55.9395 12.2358 55.3116 11.8591C54.7017 11.4823 54.02 11.294 53.2665 11.294C52.5131 11.294 51.8224 11.4823 51.1945 11.8591C50.5846 12.2358 50.0913 12.765 49.7145 13.4467C49.3558 14.1105 49.1764 14.8998 49.1764 15.8147C49.1764 16.7117 49.3558 17.501 49.7145 18.1827C50.0913 18.8465 50.5846 19.3667 51.1945 19.7434C51.8224 20.1202 52.5131 20.3085 53.2665 20.3085C54.02 20.3085 54.7017 20.1202 55.3116 19.7434C55.9395 19.3667 56.4328 18.8465 56.7916 18.1827C57.1684 17.501 57.3567 16.7117 57.3567 15.8147Z" fill="black"/>
<path d="M44.2037 5.07778C45.1434 5.54763 45.2752 6.77749 44.6342 7.55341C44.1544 8.21781 43.2974 8.20076 42.6161 7.87632C41.7701 7.48861 40.8232 7.25741 39.7637 7.25741C36.0883 7.25741 33.5746 9.94635 33.5746 13.581C33.5746 15.3667 34.0318 17.1753 35.3506 18.4516C36.8828 19.9343 39.1797 20.2819 41.2168 19.9047C42.0555 19.7494 42.8471 19.1011 43.7193 19.232C44.5964 19.3573 45.2268 20.346 45.0379 21.1963C44.8441 22.2039 43.6258 22.5382 42.7775 22.8109C41.8081 23.0981 40.7757 23.2683 39.7637 23.2683C38.4721 23.2683 37.2432 23.062 36.0771 22.6494C34.929 22.2368 33.8975 21.6269 32.9826 20.8196C32.0856 20.0123 31.377 19.0077 30.8568 17.8058C30.3365 16.5859 30.0764 15.1777 30.0764 13.581C30.0764 12.1997 30.3096 10.926 30.7761 9.75996C31.2604 8.5939 31.9331 7.58929 32.7942 6.74614C33.6733 5.88505 34.7048 5.22129 35.8888 4.75487C37.0728 4.2705 38.3644 4.02832 39.7637 4.02832C41.3424 4.02832 42.8762 4.39608 44.2037 5.07778Z" fill="black"/>
<g clip-path="url(#clip0_597_1357)">
<path d="M19.5999 13.8877C19.5999 17.7851 16.4405 20.9445 12.5431 20.9445C8.64577 20.9445 5.48633 17.7851 5.48633 13.8877" stroke="#0D47A1" stroke-width="1.79186" stroke-linecap="round"/>
<path d="M5.0253 20.9168C9.25477 25.1463 16.1121 25.1463 20.3416 20.9168C24.571 16.6874 24.571 9.83005 20.3416 5.60059" stroke="#0D47A1" stroke-width="2" stroke-linecap="round"/>
</g>
<defs>
<clipPath id="clip0_597_1357">
<rect width="28" height="28" fill="white"/>
</clipPath>
</defs>
</svg>
