<svg width="85" height="85" viewBox="0 0 85 85" fill="none" xmlns="http://www.w3.org/2000/svg">
<g filter="url(#filter0_d_330_1593)">
<circle cx="42.7733" cy="50.9461" r="23.1571" fill="white"/>
<mask id="path-2-inside-1_330_1593" fill="white">
<path d="M21.6006 42.0078C21.3704 43.3181 21.251 44.6667 21.251 46.043C21.2512 58.8321 31.619 69.1992 44.4082 69.1992C53.8529 69.1991 61.9749 63.5446 65.5781 55.4365C63.6681 66.3013 54.1857 74.5566 42.7734 74.5566C29.9842 74.5566 19.6162 64.1887 19.6162 51.3994C19.6163 48.056 20.3254 44.8783 21.6006 42.0078Z"/>
</mask>
<path d="M21.6006 42.0078C21.3704 43.3181 21.251 44.6667 21.251 46.043C21.2512 58.8321 31.619 69.1992 44.4082 69.1992C53.8529 69.1991 61.9749 63.5446 65.5781 55.4365C63.6681 66.3013 54.1857 74.5566 42.7734 74.5566C29.9842 74.5566 19.6162 64.1887 19.6162 51.3994C19.6163 48.056 20.3254 44.8783 21.6006 42.0078Z" fill="#F6F6F6"/>
<path d="M21.6006 42.0078L23.2105 42.2907L20.1067 41.3442L21.6006 42.0078ZM21.251 46.043H19.6164L19.6164 46.043L21.251 46.043ZM44.4082 69.1992V70.8338H44.4082L44.4082 69.1992ZM65.5781 55.4365L67.1881 55.7196L64.0844 54.7727L65.5781 55.4365ZM42.7734 74.5566V76.1913H42.7734L42.7734 74.5566ZM19.6162 51.3994L17.9816 51.3994V51.3994H19.6162ZM21.6006 42.0078L19.9906 41.7249C19.744 43.1287 19.6164 44.572 19.6164 46.043H21.251H22.8856C22.8856 44.7614 22.9968 43.5074 23.2105 42.2907L21.6006 42.0078ZM21.251 46.043L19.6164 46.043C19.6165 59.735 30.7163 70.8338 44.4082 70.8338V69.1992V67.5646C32.5217 67.5646 22.8858 57.9293 22.8856 46.0429L21.251 46.043ZM44.4082 69.1992L44.4082 70.8338C54.5223 70.8338 63.216 64.777 67.0719 56.1003L65.5781 55.4365L64.0844 54.7727C60.7339 62.3121 53.1834 67.5645 44.4082 67.5646L44.4082 69.1992ZM65.5781 55.4365L63.9682 55.1535C62.1932 65.2503 53.3783 72.922 42.7734 72.922L42.7734 74.5566L42.7734 76.1913C54.9931 76.1912 65.143 67.3522 67.1881 55.7196L65.5781 55.4365ZM42.7734 74.5566V72.922C30.8869 72.922 21.2508 63.2859 21.2508 51.3994H19.6162H17.9816C17.9816 65.0915 29.0814 76.1913 42.7734 76.1913V74.5566ZM19.6162 51.3994L21.2508 51.3994C21.2509 48.2892 21.9102 45.3372 23.0944 42.6714L21.6006 42.0078L20.1067 41.3442C18.7406 44.4193 17.9817 47.8228 17.9816 51.3994L19.6162 51.3994Z" fill="#F6F6F6" mask="url(#path-2-inside-1_330_1593)"/>
<circle cx="42.7733" cy="50.9461" r="22.8301" stroke="#F6F6F6" stroke-width="0.653846"/>
<path d="M38.6865 41.4116L40.0487 49.5847" stroke="#444444" stroke-width="4.08654" stroke-linecap="round"/>
<path d="M50.9463 40.0483L52.3085 48.2214" stroke="#444444" stroke-width="4.08654" stroke-linecap="round"/>
<path d="M44.1348 8.50049C48.468 8.50049 51.9813 12.013 51.9814 16.3462C51.9814 18.6219 51.0113 20.6703 49.4629 22.104L49.2617 22.2905L49.4111 22.522L55.2373 31.5083C55.0125 31.4115 54.7536 31.3144 54.4561 31.2222C52.8199 30.7152 49.9922 30.3247 45.1113 30.6558L44.1074 30.7319C37.098 31.3161 31.5327 33.79 27.7207 36.1167C25.8148 37.28 24.3456 38.4076 23.3516 39.2456C22.9401 39.5925 22.6105 39.8916 22.3643 40.1216L21.9316 29.3101L21.9209 29.0415L21.6553 28.9995L21.3066 28.937C17.73 28.2067 15.0392 25.0428 15.0391 21.2505C15.0391 16.9173 18.5516 13.4039 22.8848 13.4038C23.6145 13.4038 24.3212 13.5047 24.9912 13.6909L25.2754 13.77L25.3828 13.4946C26.5243 10.5711 29.3662 8.50061 32.6924 8.50049C34.8313 8.50049 36.7688 9.35717 38.1846 10.7456L38.4141 10.9702L38.6426 10.7456C40.0583 9.35719 41.9959 8.50055 44.1348 8.50049Z" fill="#F6F6F6" stroke="#F6F6F6" stroke-width="0.653846"/>
</g>
<defs>
<filter id="filter0_d_330_1593" x="10.7119" y="8.17334" width="59.2183" height="74.3833" filterUnits="userSpaceOnUse" color-interpolation-filters="sRGB">
<feFlood flood-opacity="0" result="BackgroundImageFix"/>
<feColorMatrix in="SourceAlpha" type="matrix" values="0 0 0 0 0 0 0 0 0 0 0 0 0 0 0 0 0 0 127 0" result="hardAlpha"/>
<feOffset dy="4"/>
<feGaussianBlur stdDeviation="2"/>
<feComposite in2="hardAlpha" operator="out"/>
<feColorMatrix type="matrix" values="0 0 0 0 0 0 0 0 0 0 0 0 0 0 0 0 0 0 0.16 0"/>
<feBlend mode="normal" in2="BackgroundImageFix" result="effect1_dropShadow_330_1593"/>
<feBlend mode="normal" in="SourceGraphic" in2="effect1_dropShadow_330_1593" result="shape"/>
</filter>
</defs>
</svg>
