<svg width="36" height="36" viewBox="0 0 36 36" fill="none" xmlns="http://www.w3.org/2000/svg">
<g filter="url(#filter0_d_339_2929)">
<circle cx="18.1153" cy="21.5772" r="9.80769" fill="white"/>
<mask id="path-2-inside-1_339_2929" fill="white">
<path d="M9.15137 17.7915C9.0538 18.3466 9 18.9174 9 19.5005C9.00001 24.9171 13.392 29.3081 18.8086 29.3081C22.8084 29.3079 26.2454 26.9118 27.7715 23.478C26.9627 28.0796 22.9496 31.5764 18.1162 31.5767C12.6996 31.5767 8.30762 27.1857 8.30762 21.769C8.30765 20.3526 8.61099 19.0075 9.15137 17.7915Z"/>
</mask>
<path d="M9.15137 17.7915C9.0538 18.3466 9 18.9174 9 19.5005C9.00001 24.9171 13.392 29.3081 18.8086 29.3081C22.8084 29.3079 26.2454 26.9118 27.7715 23.478C26.9627 28.0796 22.9496 31.5764 18.1162 31.5767C12.6996 31.5767 8.30762 27.1857 8.30762 21.769C8.30765 20.3526 8.61099 19.0075 9.15137 17.7915Z" fill="#F6F6F6"/>
<path d="M9.15137 17.7915L9.83322 17.9113L8.51872 17.5104L9.15137 17.7915ZM9 19.5005L8.30769 19.5005L8.30769 19.5005L9 19.5005ZM18.8086 29.3081L18.8086 30.0004L18.8086 30.0004L18.8086 29.3081ZM27.7715 23.478L28.4533 23.5979L27.1388 23.1969L27.7715 23.478ZM18.1162 31.5767L18.1162 32.269L18.1162 32.269L18.1162 31.5767ZM8.30762 21.769L7.61531 21.769V21.769H8.30762ZM9.15137 17.7915L8.46951 17.6717C8.36544 18.2638 8.30769 18.8747 8.30769 19.5005H9H9.69231C9.69231 18.9601 9.74216 18.4295 9.83322 17.9113L9.15137 17.7915ZM9 19.5005L8.30769 19.5005C8.3077 25.2996 13.0097 30.0004 18.8086 30.0004V29.3081V28.6158C13.7742 28.6158 9.69231 24.5347 9.69231 19.5005L9 19.5005ZM18.8086 29.3081L18.8086 30.0004C23.0924 30.0002 26.7712 27.4334 28.4041 23.7592L27.7715 23.478L27.1388 23.1969C25.7197 26.3902 22.5245 28.6156 18.8086 28.6158L18.8086 29.3081ZM27.7715 23.478L27.0896 23.3582C26.338 27.6348 22.6073 30.8841 18.1162 30.8844L18.1162 31.5767L18.1162 32.269C23.2918 32.2687 27.5875 28.5244 28.4533 23.5979L27.7715 23.478ZM18.1162 31.5767V30.8844C13.0818 30.8844 8.99992 26.8032 8.99992 21.769H8.30762H7.61531C7.61531 27.5681 12.3173 32.269 18.1162 32.269V31.5767ZM8.30762 21.769L8.99992 21.7691C8.99996 20.4524 9.28175 19.2029 9.78402 18.0727L9.15137 17.7915L8.51872 17.5104C7.94023 18.8121 7.61535 20.2528 7.61531 21.769L8.30762 21.769Z" fill="#F6F6F6" mask="url(#path-2-inside-1_339_2929)"/>
<circle cx="18.1153" cy="21.5772" r="9.66923" stroke="#F6F6F6" stroke-width="0.276923"/>
<path d="M16.3848 17.5391L16.9617 21.0006" stroke="#444444" stroke-width="1.73077" stroke-linecap="round"/>
<path d="M21.5771 16.9614L22.1541 20.423" stroke="#444444" stroke-width="1.73077" stroke-linecap="round"/>
<path d="M18.6924 3.6001C20.5275 3.6003 22.0146 5.08818 22.0146 6.92334C22.0145 7.88701 21.604 8.75467 20.9482 9.36182L20.8633 9.44092L20.9268 9.53857L23.3965 13.3472C23.3006 13.3058 23.1908 13.2626 23.0635 13.2231C22.4168 13.0227 21.3304 12.8656 19.5078 12.9595L18.6807 13.0161C15.7119 13.2635 13.3548 14.311 11.7402 15.2964C10.933 15.7891 10.3107 16.2667 9.88965 16.6216C9.71564 16.7683 9.5759 16.8944 9.47168 16.9917L9.28809 12.4136L9.2832 12.2993L9.1709 12.2817L8.87793 12.2222C7.43624 11.8592 6.36914 10.5538 6.36914 8.99951C6.36934 7.1644 7.85722 5.67725 9.69238 5.67725C10.0013 5.67728 10.3003 5.7195 10.584 5.79834L10.7041 5.83154L10.75 5.71533C11.2334 4.47715 12.437 3.60016 13.8457 3.6001C14.7515 3.6001 15.5723 3.9624 16.1719 4.55029L16.2686 4.646L16.3662 4.55029C16.9658 3.96246 17.7867 3.6001 18.6924 3.6001Z" fill="#F6F6F6" stroke="#F6F6F6" stroke-width="0.276923"/>
</g>
<defs>
<filter id="filter0_d_339_2929" x="4.53635" y="3.46143" width="25.0806" height="31.5035" filterUnits="userSpaceOnUse" color-interpolation-filters="sRGB">
<feFlood flood-opacity="0" result="BackgroundImageFix"/>
<feColorMatrix in="SourceAlpha" type="matrix" values="0 0 0 0 0 0 0 0 0 0 0 0 0 0 0 0 0 0 127 0" result="hardAlpha"/>
<feOffset dy="1.69412"/>
<feGaussianBlur stdDeviation="0.847059"/>
<feComposite in2="hardAlpha" operator="out"/>
<feColorMatrix type="matrix" values="0 0 0 0 0 0 0 0 0 0 0 0 0 0 0 0 0 0 0.16 0"/>
<feBlend mode="normal" in2="BackgroundImageFix" result="effect1_dropShadow_339_2929"/>
<feBlend mode="normal" in="SourceGraphic" in2="effect1_dropShadow_339_2929" result="shape"/>
</filter>
</defs>
</svg>
